<mxfile host="Electron" agent="Mozilla/5.0 (Macintosh; Intel Mac OS X 10_15_7) AppleWebKit/537.36 (KHTML, like Gecko) draw.io/24.7.17 Chrome/128.0.6613.36 Electron/32.0.1 Safari/537.36" version="24.7.17">
  <diagram name="Page-1" id="rlybBXTehPyZVLJO9jS7">
    <mxGraphModel dx="1242" dy="878" grid="1" gridSize="10" guides="1" tooltips="1" connect="1" arrows="1" fold="1" page="1" pageScale="1" pageWidth="1169" pageHeight="827" math="0" shadow="0">
      <root>
        <mxCell id="0" />
        <mxCell id="1" parent="0" />
        <mxCell id="aVI8A8lwEajAvU7c24Gj-10" value="" style="rounded=1;whiteSpace=wrap;html=1;arcSize=3;" vertex="1" parent="1">
          <mxGeometry x="340" y="250" width="470" height="430" as="geometry" />
        </mxCell>
        <mxCell id="aVI8A8lwEajAvU7c24Gj-1" value="User" style="ellipse;whiteSpace=wrap;html=1;" vertex="1" parent="1">
          <mxGeometry x="80" y="260" width="120" height="80" as="geometry" />
        </mxCell>
        <mxCell id="aVI8A8lwEajAvU7c24Gj-2" value="API&lt;div&gt;POST http://localhost:5001/agens&lt;/div&gt;" style="rounded=1;whiteSpace=wrap;html=1;" vertex="1" parent="1">
          <mxGeometry x="370" y="270" width="420" height="60" as="geometry" />
        </mxCell>
        <mxCell id="aVI8A8lwEajAvU7c24Gj-3" value="Agent" style="rounded=1;whiteSpace=wrap;html=1;" vertex="1" parent="1">
          <mxGeometry x="370" y="400" width="160" height="60" as="geometry" />
        </mxCell>
        <mxCell id="aVI8A8lwEajAvU7c24Gj-4" value="Browser-Use" style="rounded=1;whiteSpace=wrap;html=1;" vertex="1" parent="1">
          <mxGeometry x="620" y="400" width="170" height="60" as="geometry" />
        </mxCell>
        <mxCell id="aVI8A8lwEajAvU7c24Gj-7" value="" style="endArrow=classic;html=1;rounded=0;" edge="1" parent="1">
          <mxGeometry width="50" height="50" relative="1" as="geometry">
            <mxPoint x="410" y="330" as="sourcePoint" />
            <mxPoint x="410" y="400" as="targetPoint" />
          </mxGeometry>
        </mxCell>
        <mxCell id="aVI8A8lwEajAvU7c24Gj-8" value="" style="endArrow=classic;startArrow=classic;html=1;rounded=0;entryX=0;entryY=0.5;entryDx=0;entryDy=0;" edge="1" parent="1" target="aVI8A8lwEajAvU7c24Gj-4">
          <mxGeometry width="50" height="50" relative="1" as="geometry">
            <mxPoint x="530" y="430" as="sourcePoint" />
            <mxPoint x="580" y="380" as="targetPoint" />
          </mxGeometry>
        </mxCell>
        <mxCell id="aVI8A8lwEajAvU7c24Gj-9" value="" style="endArrow=classic;html=1;rounded=0;" edge="1" parent="1">
          <mxGeometry width="50" height="50" relative="1" as="geometry">
            <mxPoint x="500" y="400" as="sourcePoint" />
            <mxPoint x="500" y="330" as="targetPoint" />
          </mxGeometry>
        </mxCell>
        <mxCell id="aVI8A8lwEajAvU7c24Gj-11" value="docker container" style="text;html=1;align=center;verticalAlign=middle;resizable=0;points=[];autosize=1;strokeColor=none;fillColor=none;rotation=-90;" vertex="1" parent="1">
          <mxGeometry x="300" y="490" width="110" height="30" as="geometry" />
        </mxCell>
        <mxCell id="aVI8A8lwEajAvU7c24Gj-16" value="" style="endArrow=classic;html=1;rounded=0;" edge="1" parent="1">
          <mxGeometry width="50" height="50" relative="1" as="geometry">
            <mxPoint x="704.5" y="540" as="sourcePoint" />
            <mxPoint x="704.5" y="460" as="targetPoint" />
          </mxGeometry>
        </mxCell>
        <mxCell id="aVI8A8lwEajAvU7c24Gj-17" value="" style="endArrow=classic;startArrow=classic;html=1;rounded=0;entryX=0;entryY=0.5;entryDx=0;entryDy=0;exitX=1;exitY=0.5;exitDx=0;exitDy=0;" edge="1" parent="1" source="aVI8A8lwEajAvU7c24Gj-1" target="aVI8A8lwEajAvU7c24Gj-2">
          <mxGeometry width="50" height="50" relative="1" as="geometry">
            <mxPoint x="200" y="310" as="sourcePoint" />
            <mxPoint x="250" y="260" as="targetPoint" />
          </mxGeometry>
        </mxCell>
        <mxCell id="aVI8A8lwEajAvU7c24Gj-18" value="" style="endArrow=classic;startArrow=classic;html=1;rounded=0;exitX=0.5;exitY=1;exitDx=0;exitDy=0;entryX=0;entryY=0.5;entryDx=0;entryDy=0;" edge="1" parent="1" source="aVI8A8lwEajAvU7c24Gj-1" target="aVI8A8lwEajAvU7c24Gj-19">
          <mxGeometry width="50" height="50" relative="1" as="geometry">
            <mxPoint x="140" y="520" as="sourcePoint" />
            <mxPoint x="260" y="550" as="targetPoint" />
            <Array as="points">
              <mxPoint x="140" y="600" />
            </Array>
          </mxGeometry>
        </mxCell>
        <mxCell id="aVI8A8lwEajAvU7c24Gj-19" value="" style="rounded=1;whiteSpace=wrap;html=1;arcSize=8;" vertex="1" parent="1">
          <mxGeometry x="370" y="540" width="410" height="120" as="geometry" />
        </mxCell>
        <mxCell id="aVI8A8lwEajAvU7c24Gj-15" value="chrome http://localhost:9222/json/version&lt;div&gt;(powered by playwright)&lt;/div&gt;" style="rounded=1;whiteSpace=wrap;html=1;arcSize=10;" vertex="1" parent="1">
          <mxGeometry x="390" y="560" width="370" height="60" as="geometry" />
        </mxCell>
        <mxCell id="aVI8A8lwEajAvU7c24Gj-20" value="VNC http://localhost:6080" style="text;html=1;align=center;verticalAlign=middle;resizable=0;points=[];autosize=1;strokeColor=none;fillColor=none;" vertex="1" parent="1">
          <mxGeometry x="380" y="630" width="160" height="30" as="geometry" />
        </mxCell>
        <mxCell id="aVI8A8lwEajAvU7c24Gj-21" value="View/Edit the chrome activites" style="text;html=1;align=center;verticalAlign=middle;resizable=0;points=[];autosize=1;strokeColor=none;fillColor=none;" vertex="1" parent="1">
          <mxGeometry x="140" y="570" width="180" height="30" as="geometry" />
        </mxCell>
        <mxCell id="aVI8A8lwEajAvU7c24Gj-22" value="Access the API in a&amp;nbsp;&lt;div&gt;web app,&amp;nbsp;&lt;span style=&quot;background-color: initial;&quot;&gt;postman or any&lt;/span&gt;&lt;/div&gt;&lt;div&gt;&lt;span style=&quot;background-color: initial;&quot;&gt;web interface&lt;/span&gt;&lt;/div&gt;" style="text;html=1;align=center;verticalAlign=middle;resizable=0;points=[];autosize=1;strokeColor=none;fillColor=none;" vertex="1" parent="1">
          <mxGeometry x="180" y="300" width="160" height="60" as="geometry" />
        </mxCell>
        <mxCell id="aVI8A8lwEajAvU7c24Gj-23" value="Initiates&amp;nbsp;&lt;div&gt;browser-user&amp;nbsp;&lt;/div&gt;&lt;div&gt;agent&lt;/div&gt;" style="text;html=1;align=left;verticalAlign=middle;resizable=0;points=[];autosize=1;strokeColor=none;fillColor=none;" vertex="1" parent="1">
          <mxGeometry x="413" y="330" width="100" height="60" as="geometry" />
        </mxCell>
        <mxCell id="aVI8A8lwEajAvU7c24Gj-24" value="Get history from&amp;nbsp;&lt;div&gt;browser-use agent&lt;/div&gt;" style="text;html=1;align=left;verticalAlign=middle;resizable=0;points=[];autosize=1;strokeColor=none;fillColor=none;" vertex="1" parent="1">
          <mxGeometry x="503" y="338" width="120" height="40" as="geometry" />
        </mxCell>
        <mxCell id="aVI8A8lwEajAvU7c24Gj-25" value="&lt;div style=&quot;text-align: justify;&quot;&gt;&lt;span style=&quot;background-color: initial;&quot;&gt;Agent uses&amp;nbsp;&lt;/span&gt;&lt;/div&gt;&lt;div style=&quot;text-align: justify;&quot;&gt;browser-use&amp;nbsp;&lt;/div&gt;&lt;div style=&quot;text-align: justify;&quot;&gt;core engine&lt;/div&gt;" style="text;html=1;align=center;verticalAlign=middle;resizable=0;points=[];autosize=1;strokeColor=none;fillColor=none;" vertex="1" parent="1">
          <mxGeometry x="533" y="430" width="90" height="60" as="geometry" />
        </mxCell>
        <mxCell id="aVI8A8lwEajAvU7c24Gj-26" value="Uses chrome&amp;nbsp;&lt;div&gt;through playwright&lt;/div&gt;" style="text;html=1;align=right;verticalAlign=middle;resizable=0;points=[];autosize=1;strokeColor=none;fillColor=none;" vertex="1" parent="1">
          <mxGeometry x="580" y="490" width="120" height="40" as="geometry" />
        </mxCell>
      </root>
    </mxGraphModel>
  </diagram>
</mxfile>
